<?xml version="1.0" encoding="UTF-8" standalone="no"?>
<!-- Created with Inkscape (http://www.inkscape.org/) -->

<svg
   xmlns:dc="http://purl.org/dc/elements/1.1/"
   xmlns:cc="http://creativecommons.org/ns#"
   xmlns:rdf="http://www.w3.org/1999/02/22-rdf-syntax-ns#"
   xmlns:svg="http://www.w3.org/2000/svg"
   xmlns="http://www.w3.org/2000/svg"
   xmlns:xlink="http://www.w3.org/1999/xlink"
   xmlns:sodipodi="http://sodipodi.sourceforge.net/DTD/sodipodi-0.dtd"
   xmlns:inkscape="http://www.inkscape.org/namespaces/inkscape"
   width="24.795334mm"
   height="9.6561832mm"
   viewBox="0 0 24.795334 9.6561832"
   version="1.1"
   id="svg8"
   inkscape:version="0.92.3 (2405546, 2018-03-11)"
   sodipodi:docname="pollskylogo.svg">
  <defs
     id="defs2">
    <linearGradient
       inkscape:collect="always"
       id="linearGradient1036">
      <stop
         style="stop-color:#00005d;stop-opacity:1"
         offset="0"
         id="stop1032" />
      <stop
         style="stop-color:#008aff;stop-opacity:1"
         offset="1"
         id="stop1034" />
    </linearGradient>
    <linearGradient
       inkscape:collect="always"
       xlink:href="#linearGradient1036"
       id="linearGradient1022"
       gradientUnits="userSpaceOnUse"
       x1="28.594999"
       y1="91.440651"
       x2="41.289417"
       y2="91.440651" />
    <linearGradient
       inkscape:collect="always"
       xlink:href="#linearGradient1036"
       id="linearGradient1038"
       gradientUnits="userSpaceOnUse"
       x1="28.594999"
       y1="91.440651"
       x2="41.289417"
       y2="91.440651" />
  </defs>
  <sodipodi:namedview
     id="base"
     pagecolor="#ffffff"
     bordercolor="#666666"
     borderopacity="1.0"
     inkscape:pageopacity="0.0"
     inkscape:pageshadow="2"
     inkscape:zoom="5.6"
     inkscape:cx="63.609643"
     inkscape:cy="35.867939"
     inkscape:document-units="mm"
     inkscape:current-layer="layer1"
     showgrid="false"
     showguides="false"
     inkscape:window-width="3840"
     inkscape:window-height="2066"
     inkscape:window-x="-11"
     inkscape:window-y="-11"
     inkscape:window-maximized="1" />
  <metadata
     id="metadata5">
    <rdf:RDF>
      <cc:Work
         rdf:about="">
        <dc:format>image/svg+xml</dc:format>
        <dc:type
           rdf:resource="http://purl.org/dc/dcmitype/StillImage" />
        <dc:title></dc:title>
      </cc:Work>
    </rdf:RDF>
  </metadata>
  <g
     inkscape:label="Layer 1"
     inkscape:groupmode="layer"
     id="layer1"
     transform="translate(-16.905133,-86.62472)">
    <text
       xml:space="preserve"
       style="font-style:italic;font-variant:normal;font-weight:bold;font-stretch:normal;font-size:10.58333302px;line-height:1.25;font-family:Lato;-inkscape-font-specification:'Lato Bold Italic';letter-spacing:0px;word-spacing:0px;fill:#000000;fill-opacity:1;stroke:none;stroke-width:0.26458332"
       x="30.468725"
       y="188.2213"
       id="text817"><tspan
         sodipodi:role="line"
         id="tspan815"
         x="30.468725"
         y="198.0638"
         style="font-style:italic;font-variant:normal;font-weight:bold;font-stretch:normal;font-family:Lato;-inkscape-font-specification:'Lato Bold Italic';stroke-width:0.26458332" /></text>
    <text
       xml:space="preserve"
       style="font-style:italic;font-variant:normal;font-weight:bold;font-stretch:normal;font-size:10.58333302px;line-height:1.25;font-family:Lato;-inkscape-font-specification:'Lato Bold Italic';letter-spacing:0px;word-spacing:0px;fill:#000000;fill-opacity:1;stroke:none;stroke-width:0.26458332"
       x="36.348656"
       y="189.82491"
       id="text821"><tspan
         sodipodi:role="line"
         id="tspan819"
         x="36.348656"
         y="199.6674"
         style="font-style:italic;font-variant:normal;font-weight:bold;font-stretch:normal;font-family:Lato;-inkscape-font-specification:'Lato Bold Italic';stroke-width:0.26458332" /></text>
    <text
       xml:space="preserve"
       style="font-style:italic;font-variant:normal;font-weight:bold;font-stretch:normal;font-size:10.58333302px;line-height:1.25;font-family:pier;-inkscape-font-specification:'pier Bold Italic';letter-spacing:0px;word-spacing:0px;fill:#000000;fill-opacity:1;stroke:none;stroke-width:0.26458332"
       x="27.261532"
       y="83.726929"
       id="text829"><tspan
         sodipodi:role="line"
         id="tspan827"
         x="27.261532"
         y="93.382423"
         style="font-style:italic;font-variant:normal;font-weight:bold;font-stretch:normal;font-family:pier;-inkscape-font-specification:'pier Bold Italic';stroke-width:0.26458332" /></text>
    <g
       aria-label="s"
       style="font-style:italic;font-variant:normal;font-weight:bold;font-stretch:normal;font-size:10.58333302px;line-height:1.25;font-family:Lato;-inkscape-font-specification:'Lato Bold Italic';letter-spacing:0px;word-spacing:0px;fill:#00005d;fill-opacity:1;stroke:none;stroke-width:0.26458332"
       id="g906"
       transform="translate(-14.12686,8.5398996)" />
    <g
       aria-label="k"
       style="font-style:italic;font-variant:normal;font-weight:bold;font-stretch:normal;font-size:10.58333302px;line-height:1.25;font-family:Lato;-inkscape-font-specification:'Lato Bold Italic';letter-spacing:0px;word-spacing:0px;fill:#0049a2;fill-opacity:1;stroke:none;stroke-width:0.26458332"
       id="g910"
       transform="translate(-14.12686,8.5398996)" />
    <g
       id="g1058">
      <g
         transform="translate(-0.52916667)"
         id="text833"
         style="font-style:italic;font-variant:normal;font-weight:bold;font-stretch:normal;font-size:10.58333302px;line-height:1.25;font-family:Lato;-inkscape-font-specification:'Lato Bold Italic';letter-spacing:0px;word-spacing:0px;fill:#000000;fill-opacity:1;stroke:none;stroke-width:0.26458332"
         aria-label="P">
        <path
           inkscape:connector-curvature="0"
           id="path881"
           style="font-style:italic;font-variant:normal;font-weight:bold;font-stretch:normal;font-family:Lato;-inkscape-font-specification:'Lato Bold Italic';stroke-width:0.26458332"
           d="m 20.223009,90.70479 q 0.407458,0 0.703791,-0.121708 0.296334,-0.121709 0.486834,-0.338667 0.195791,-0.22225 0.28575,-0.523875 0.09525,-0.301625 0.09525,-0.66675 0,-0.259292 -0.07408,-0.47625 -0.07408,-0.216958 -0.227541,-0.365125 -0.153459,-0.153458 -0.386292,-0.238125 -0.227542,-0.08467 -0.545042,-0.08467 h -0.9525 l -0.343958,2.815167 z m 0.470958,-3.8735 q 0.650875,0 1.116542,0.15875 0.470958,0.153458 0.772583,0.433917 0.301625,0.280458 0.4445,0.66675 0.148167,0.381 0.148167,0.841375 0,0.613833 -0.195792,1.137708 -0.1905,0.518583 -0.576792,0.899583 -0.386291,0.375709 -0.968375,0.592667 -0.576791,0.211667 -1.349375,0.211667 h -0.9525 L 18.79955,94.48304 H 17.4343 l 0.931334,-7.65175 z" />
      </g>
      <g
         transform="translate(0.100248)"
         id="text841"
         style="font-style:italic;font-variant:normal;font-weight:bold;font-stretch:normal;font-size:10.58333302px;line-height:1.25;font-family:Lato;-inkscape-font-specification:'Lato Bold Italic';letter-spacing:0px;word-spacing:0px;fill:#000000;fill-opacity:1;stroke:none;stroke-width:0.26458332"
         aria-label="o">
        <path
           inkscape:connector-curvature="0"
           id="path878"
           style="font-style:italic;font-variant:normal;font-weight:bold;font-stretch:normal;font-family:Lato;-inkscape-font-specification:'Lato Bold Italic';stroke-width:0.26458332"
           d="m 23.439669,93.47837 q 0.328083,0 0.592666,-0.185209 0.264584,-0.1905 0.449792,-0.502708 0.185208,-0.3175 0.28575,-0.735542 0.100542,-0.418041 0.100542,-0.878416 0,-0.661459 -0.22225,-0.968375 -0.22225,-0.312209 -0.677334,-0.312209 -0.328083,0 -0.597958,0.185209 -0.264583,0.185208 -0.449792,0.502708 -0.185208,0.312208 -0.28575,0.73025 -0.100541,0.418042 -0.100541,0.883708 0,0.661459 0.22225,0.973667 0.22225,0.306917 0.682625,0.306917 z m -0.121709,1.005416 q -0.449791,0 -0.830791,-0.148166 -0.381,-0.153459 -0.661459,-0.4445 -0.280458,-0.291042 -0.439208,-0.714375 -0.15875,-0.423334 -0.15875,-0.968375 0,-0.703792 0.227542,-1.312334 0.227541,-0.608541 0.613833,-1.053041 0.391583,-0.4445 0.910167,-0.6985 0.518583,-0.254 1.105958,-0.254 0.449792,0 0.830792,0.153458 0.386291,0.148167 0.661458,0.439208 0.280458,0.291042 0.439208,0.714375 0.15875,0.423334 0.15875,0.968375 0,0.6985 -0.227541,1.307042 -0.227542,0.60325 -0.619125,1.053042 -0.386292,0.4445 -0.904875,0.703791 -0.518584,0.254 -1.105959,0.254 z" />
      </g>
      <g
         id="text845"
         style="font-style:italic;font-variant:normal;font-weight:bold;font-stretch:normal;font-size:10.58333302px;line-height:1.25;font-family:Lato;-inkscape-font-specification:'Lato Bold Italic';letter-spacing:0px;word-spacing:0px;fill:#000000;fill-opacity:1;stroke:none;stroke-width:0.26458332"
         aria-label="l">
        <path
           id="path875"
           style="font-style:italic;font-variant:normal;font-weight:bold;font-stretch:normal;font-family:Lato;-inkscape-font-specification:'Lato Bold Italic';stroke-width:0.26458332"
           d="m 25.753083,94.488136 0.9525,-7.863416 h 1.291167 l -0.957792,7.863416 z"
           inkscape:connector-curvature="0" />
      </g>
      <g
         id="text849"
         style="font-style:italic;font-variant:normal;font-weight:bold;font-stretch:normal;font-size:10.58333302px;line-height:1.25;font-family:Lato;-inkscape-font-specification:'Lato Bold Italic';letter-spacing:0px;word-spacing:0px;fill:#000000;fill-opacity:1;stroke:none;stroke-width:0.26458332"
         aria-label="l">
        <path
           id="path872"
           style="font-style:italic;font-variant:normal;font-weight:bold;font-stretch:normal;font-family:Lato;-inkscape-font-specification:'Lato Bold Italic';stroke-width:0.26458332"
           d="m 27.501221,94.488136 0.9525,-7.863416 h 1.291167 l -0.957792,7.863416 z"
           inkscape:connector-curvature="0" />
      </g>
      <g
         transform="translate(0.4110491,0.02362353)"
         id="g914"
         style="font-style:italic;font-variant:normal;font-weight:bold;font-stretch:normal;font-size:10.58333302px;line-height:1.25;font-family:Lato;-inkscape-font-specification:'Lato Bold Italic';letter-spacing:0px;word-spacing:0px;fill:url(#linearGradient1022);fill-opacity:1;stroke:none;stroke-width:0.26458332;stroke-opacity:1"
         aria-label="y">
        <path
           inkscape:connector-curvature="0"
           d="m 41.289419,89.055324 -3.58775,6.932083 q -0.07408,0.137583 -0.174625,0.201083 -0.100542,0.06879 -0.248709,0.06879 H 36.30996 l 1.2065,-2.19075 -1.370541,-5.011208 h 1.095375 q 0.142875,0 0.211666,0.07408 0.07408,0.06879 0.100542,0.169333 l 0.66675,2.815167 q 0.05292,0.269875 0.07937,0.53975 0.05821,-0.137584 0.116417,-0.269875 0.0635,-0.137584 0.127,-0.275167 l 1.338791,-2.815166 q 0.05292,-0.105834 0.153459,-0.169334 0.100541,-0.06879 0.206375,-0.06879 z m -7.002587,-2.431306 -0.550333,4.503208 h 0.132292 q 0.121708,0 0.195791,-0.03704 0.07937,-0.03704 0.164042,-0.137583 l 1.444625,-1.666875 q 0.08996,-0.111125 0.1905,-0.169333 0.100542,-0.05821 0.254,-0.05821 h 1.164167 l -1.788584,2.016124 q -0.1905,0.232834 -0.41275,0.365125 0.100542,0.07408 0.169334,0.179917 0.07408,0.105833 0.132291,0.232833 l 1.338792,2.63525 h -1.132417 q -0.142875,0 -0.238125,-0.04762 -0.09525,-0.05292 -0.153458,-0.185208 l -1.053042,-2.058458 q -0.05821,-0.121709 -0.127,-0.15875 -0.0635,-0.03704 -0.211666,-0.03704 h -0.179917 l -0.301625,2.487083 h -1.291167 l 0.968375,-7.863416 z m -1.765415,3.366873 q -0.05821,0.08467 -0.111125,0.121709 -0.05292,0.03175 -0.137583,0.03175 -0.09525,0 -0.1905,-0.05292 -0.09525,-0.05292 -0.22225,-0.116417 -0.121709,-0.06879 -0.28575,-0.121708 -0.15875,-0.05292 -0.381,-0.05292 -0.418042,0 -0.640292,0.1905 -0.22225,0.185209 -0.22225,0.465667 0,0.216958 0.153458,0.34925 0.15875,0.132292 0.396875,0.232833 0.238125,0.100542 0.508,0.206375 0.275167,0.100542 0.513292,0.259292 0.238125,0.153458 0.391583,0.402167 0.15875,0.243416 0.15875,0.629708 0,0.391583 -0.15875,0.746125 -0.153458,0.354542 -0.4445,0.624417 -0.291041,0.264583 -0.703791,0.423333 -0.407459,0.153458 -0.92075,0.153458 -0.254,0 -0.497417,-0.05292 Q 29.484,94.38297 29.272334,94.293007 29.065959,94.203047 28.891334,94.08134 28.716709,93.959641 28.595,93.816766 l 0.322792,-0.497416 q 0.05821,-0.08996 0.137583,-0.137584 0.07937,-0.04762 0.195792,-0.04762 0.111125,0 0.201083,0.06879 0.08996,0.06879 0.206375,0.153458 0.121709,0.07937 0.291042,0.148167 0.174625,0.06879 0.4445,0.06879 0.216958,0 0.381,-0.05821 0.169333,-0.05821 0.28575,-0.15875 0.116417,-0.100541 0.174625,-0.232833 0.05821,-0.132292 0.05821,-0.280458 0,-0.179917 -0.08996,-0.296334 -0.08996,-0.121708 -0.243417,-0.206375 -0.148166,-0.08996 -0.338666,-0.153458 -0.1905,-0.06879 -0.391584,-0.142875 -0.195791,-0.07408 -0.386291,-0.169333 -0.185209,-0.09525 -0.338667,-0.238125 -0.148167,-0.148167 -0.238125,-0.354542 -0.08996,-0.211667 -0.08996,-0.513292 0,-0.359833 0.137583,-0.6985 0.137583,-0.343958 0.402167,-0.60325 0.264583,-0.264583 0.650875,-0.423333 0.391583,-0.15875 0.894291,-0.15875 0.518584,0 0.92075,0.179917 0.402167,0.174625 0.672042,0.449791 z"
           style="font-style:italic;font-variant:normal;font-weight:bold;font-stretch:normal;font-family:Lato;-inkscape-font-specification:'Lato Bold Italic';fill:url(#linearGradient1038);fill-opacity:1;stroke:none;stroke-width:0.26458332;stroke-opacity:1"
           id="path912" />
      </g>
    </g>
  </g>
</svg>
